<svg xmlns="http://www.w3.org/2000/svg" viewBox="0 0 64 64" fill="none" role="img" aria-label="MoodSync favicon">
  <defs>
    <linearGradient id="bg" x1="10" y1="8" x2="54" y2="56" gradientUnits="userSpaceOnUse">
      <stop offset="0" stop-color="#f5d5b0"/>
      <stop offset="1" stop-color="#b56f43"/>
    </linearGradient>
    <linearGradient id="accent" x1="22" y1="18" x2="42" y2="48" gradientUnits="userSpaceOnUse">
      <stop offset="0" stop-color="#fff8ef"/>
      <stop offset="1" stop-color="#f1dbc3"/>
    </linearGradient>
  </defs>
  <rect width="64" height="64" rx="18" fill="url(#bg)"/>
  <circle cx="32" cy="32" r="22" fill="rgba(255,255,255,0.14)"/>
  <path d="M38 18.5c-2.65 0-5.1.97-6.97 2.58A10 10 0 1 0 40 39.5a10 10 0 0 0 2.6-13.65A9.98 9.98 0 0 1 38 18.5Z" fill="url(#accent)"/>
  <path d="M24.5 23.5c.9-1.85 2.3-3.28 4.2-4.35l1.9 2.74c-1.21.57-2.22 1.36-3.02 2.36l-3.08-.75Z" fill="#7a432b" opacity="0.9"/>
  <path d="M33.5 20.5h2.7v15.35c0 3.05-2.45 5.52-5.5 5.52s-5.5-2.47-5.5-5.52c0-3.05 2.45-5.53 5.5-5.53.98 0 1.9.26 2.8.72V20.5Z" fill="#7a432b"/>
  <circle cx="27.5" cy="14.5" r="2.1" fill="#fff8ef" opacity="0.95"/>
</svg>